<?xml version="1.0" encoding="UTF-8"?>
<svg width="253px" height="474px" viewBox="0 0 253 474" version="1.1" xmlns="http://www.w3.org/2000/svg" xmlns:xlink="http://www.w3.org/1999/xlink">
    <title>Illustrations / 1</title>
    <g id="Illustrations-/-1" stroke="none" stroke-width="1" fill="none" fill-rule="evenodd">
        <g id="Asset-3" fill-rule="nonzero">
            <rect id="Rectangle" fill="#1171B8" x="0" y="0" width="253" height="474"></rect>
            <path d="M252.88,0 L0,0 L0,50.13 C3.99539878,52.9565217 8.23173179,55.4260429 12.66,57.51 C28.66,65 36,69.76 44.87,80.56 C56.87,95.23 66.13,105.67 77.35,121.19 C88.57,136.71 102.55,139.79 119.52,144.14 C140.65,149.56 163.27,139.21 184.1,146.14 C213.83,155.96 227.86,195.7 252.88,216.82 L252.88,0 Z" id="Path" fill="#03B9D3"></path>
            <path d="M144.47,159.08 C143.117589,160.139123 141.901655,161.361775 140.85,162.72 C139.618962,163.969908 138.479359,165.306686 137.44,166.72 C137.278488,167.043437 137.357136,167.43524 137.630956,167.671291 C137.904775,167.907343 138.30389,167.927404 138.6,167.72 C139.843008,166.457678 140.989559,165.103879 142.03,163.67 C143.169751,162.441178 144.159979,161.081712 144.98,159.62 C145.16,159.24 144.8,158.82 144.47,159.03" id="Path" fill="#03B9D3"></path>
            <path d="M159.13,160.05 C156.73,162.13 154.43,164.37 152.07,166.51 C151.13,167.37 152.52,169.08 153.42,168.06 C155.51,165.68 157.68,163.38 159.72,160.94 C160.09,160.5 159.59,159.66 159.13,160.05" id="Path" fill="#03B9D3"></path>
            <path d="M158.07,174.69 C157.058717,175.143938 156.16815,175.828989 155.47,176.69 C154.73,177.5 153.78,178.42 153.73,179.69 C153.699594,179.980471 153.834006,180.263591 154.078301,180.423646 C154.322596,180.583702 154.635837,180.593872 154.89,180.45 C155.68,179.99 156.08,178.86 156.69,178.12 C157.3,177.38 158.04,176.7 158.69,175.95 C159.1,175.46 158.69,174.5 158.08,174.74" id="Path" fill="#03B9D3"></path>
            <path d="M186.51,164.92 C185.232341,166.109718 184.02054,167.368255 182.88,168.69 C181.604258,169.94384 180.455357,171.32051 179.45,172.8 C178.92,173.68 179.99,174.95 180.75,174.3 C182.039831,173.063586 183.205401,171.703755 184.23,170.24 C185.36546,168.870979 186.426973,167.442277 187.41,165.96 C187.78,165.36 187.03,164.47 186.51,164.96" id="Path" fill="#03B9D3"></path>
            <path d="M183.62,183.94 C182.668666,184.890542 181.792692,185.913627 181,187 C180.176591,188.006305 179.40557,189.054361 178.69,190.14 C178.02,191.23 179.5,192.5 180.28,191.56 C181.123289,190.47049 181.910961,189.339046 182.64,188.17 C183.388663,187.118339 184.057213,186.011888 184.64,184.86 C185.03,184.03 184.15,183.34 183.55,183.86" id="Path" fill="#03B9D3"></path>
            <path d="M191.52,194.17 C190.55695,194.822846 189.650431,195.555421 188.81,196.36 C188.01,197.09 186.81,197.88 186.36,198.98 C186.06,199.76 186.55,200.78 187.36,200.5 C188.43,200.15 189.22,198.91 190,198.04 C190.839244,197.097794 191.607988,196.095084 192.3,195.04 C192.67,194.48 191.97,193.82 191.51,194.13" id="Path" fill="#03B9D3"></path>
            <path d="M211.78,182.85 C210.63,184.23 209.61,185.75 208.5,187.17 C207.39,188.59 206.15,189.91 205.11,191.4 C204.29,192.59 205.61,194.22 206.6,193.11 C207.810015,191.638775 208.916028,190.085011 209.91,188.46 C210.962869,186.95164 211.931031,185.385889 212.81,183.77 C213.19,183.03 212.3,182.22 211.81,182.85" id="Path" fill="#03B9D3"></path>
            <path d="M202.78,208.38 C201.671464,211.079487 200.040191,213.533192 197.98,215.6 C196.92,216.6 198.45,218.38 199.5,217.35 C201.785058,215.06456 203.394258,212.192225 204.15,209.05 C204.37,208.13 203.15,207.49 202.78,208.38" id="Path" fill="#03B9D3"></path>
            <path d="M213.13,219.93 C211.810301,221.211803 210.691093,222.684978 209.81,224.3 C209.19,225.48 210.63,226.77 211.47,225.78 C212.644239,224.327883 213.604021,222.714776 214.32,220.99 C214.71,220.09 213.79,219.27 213.13,219.93" id="Path" fill="#03B9D3"></path>
            <path d="M228.15,193.34 C227.34,194.2 226.52,195.03 225.74,195.94 C224.915864,196.7677 224.184841,197.683156 223.56,198.67 C223.06,199.67 224.11,200.99 224.96,200.29 C225.791434,199.471925 226.532371,198.566708 227.17,197.59 C227.9,196.59 228.56,195.59 229.25,194.59 C229.94,193.59 228.91,192.53 228.15,193.33" id="Path" fill="#03B9D3"></path>
            <path d="M206.41,161.28 C205.28,162.6 204.18,163.94 203.1,165.28 C202.57,165.96 201.25,167.5 202.24,168.45 C203.23,169.4 204.32,167.45 204.78,166.76 C205.726667,165.28 206.646667,163.776667 207.54,162.25 C208,161.46 206.97,160.58 206.41,161.25" id="Path" fill="#03B9D3"></path>
            <path d="M183.59,146.89 C182.59,148.23 181.59,149.56 180.59,150.89 C179.76,152.05 178.59,153.23 178.59,154.82 C178.59,155.38 179.1,155.82 179.59,155.68 C180.89,155.19 181.59,153.62 182.28,152.37 C183.14,150.9 183.97,149.37 184.8,147.91 C185.26,147.09 184.18,146.11 183.62,146.86" id="Path" fill="#03B9D3"></path>
            <path d="M165.05,136 C163.96,136.94 162.92,138 161.76,138.86 C160.31,139.86 162.14,142.28 163.12,140.86 C163.98,139.63 165.07,138.57 166.02,137.42 C166.61,136.7 165.8,135.33 165.02,135.97" id="Path" fill="#03B9D3"></path>
            <path d="M211.94,133.17 C210.48,134.96 208.94,136.63 207.45,138.42 C206.75,139.29 206.05,140.16 205.34,141.02 C204.675051,141.617405 204.346076,142.503393 204.46,143.39 C204.511048,143.679875 204.756008,143.895773 205.05,143.91 C205.96,143.99 206.44,143.28 206.98,142.55 C207.65,141.65 208.34,140.76 208.98,139.86 C210.34,138.06 211.58,136.16 212.98,134.36 C213.59,133.55 212.6,132.36 211.98,133.17" id="Path" fill="#03B9D3"></path>
            <path d="M227.42,150.13 C226.946292,151.043687 226.408271,151.922566 225.81,152.76 C225.19,153.53 224.18,154.07 223.97,155.16 C223.883166,155.469323 223.934617,155.801096 224.111057,156.069591 C224.287496,156.338087 224.571616,156.516963 224.89,156.56 C226.07,156.74 227.05,155.19 227.65,154.21 C228.346549,153.120479 228.768601,151.878343 228.88,150.59 C228.9214,150.219483 228.694809,149.871472 228.339219,149.759436 C227.983628,149.647401 227.598469,149.80267 227.42,150.13" id="Path" fill="#03B9D3"></path>
            <path d="M47.76,84.56 C46.4054217,85.6128849 45.1891441,86.8325223 44.14,88.19 C42.9085531,89.439533 41.7689241,90.7763412 40.73,92.19 C40.5684882,92.5134367 40.6471361,92.9052402 40.9209556,93.1412915 C41.1947751,93.3773428 41.5938904,93.3974041 41.89,93.19 C43.1278317,91.9435207 44.2710006,90.606481 45.31,89.19 C46.4673504,87.9822731 47.4746403,86.6392199 48.31,85.19 C48.48,84.81 48.13,84.38 47.8,84.6" id="Path" fill="#1171B8"></path>
            <path d="M62.42,85.53 C60,87.6 57.72,89.84 55.36,92 C54.42,92.85 55.81,94.56 56.7,93.55 C58.8,91.15 61,88.85 63,86.41 C63.36,85.97 62.86,85.13 62.41,85.53" id="Path" fill="#1171B8"></path>
            <path d="M61.36,100.17 C60.3471592,100.621328 59.4560271,101.306814 58.76,102.17 C58.02,102.98 57.07,103.9 57.02,105.17 C56.9879498,105.459186 57.1195205,105.742173 57.3612874,105.904051 C57.6030544,106.06593 57.9148234,106.079789 58.17,105.94 C58.97,105.48 59.37,104.35 59.98,103.61 C60.59,102.87 61.33,102.18 61.98,101.43 C62.39,100.94 61.98,99.98 61.37,100.23" id="Path" fill="#1171B8"></path>
            <path d="M89.8,90.4 C88.5199466,91.583758 87.3080038,92.8391037 86.17,94.16 C84.8939132,95.4162636 83.7419172,96.7926309 82.73,98.27 C82.2,99.15 83.27,100.42 84.04,99.78 C85.3250657,98.539087 86.4902255,97.179734 87.52,95.72 C88.6555262,94.3475606 89.7170343,92.9155261 90.7,91.43 C91.07,90.84 90.31,89.94 89.8,90.43" id="Path" fill="#1171B8"></path>
            <path d="M86.91,109.41 C85.9649054,110.375752 85.0987949,111.415754 84.32,112.52 C83.490889,113.520812 82.7164281,114.565666 82,115.65 C81.32,116.74 82.8,118.01 83.59,117.07 C84.38,116.13 85.18,114.82 85.95,113.69 C86.698715,112.63488 87.367256,111.525102 87.95,110.37 C88.34,109.54 87.46,108.86 86.86,109.37" id="Path" fill="#1171B8"></path>
            <path d="M94.81,119.64 C93.8469504,120.292846 92.9404313,121.025421 92.1,121.83 C91.29,122.57 90.1,123.35 89.64,124.45 C89.35,125.23 89.84,126.25 90.64,125.98 C91.71,125.62 92.5,124.38 93.27,123.51 C94.1124655,122.56795 94.8845457,121.565249 95.58,120.51 C95.94,119.95 95.25,119.29 94.79,119.6" id="Path" fill="#1171B8"></path>
            <path d="M115.07,108.32 C113.92,109.7 112.9,111.22 111.79,112.64 C110.68,114.06 109.44,115.38 108.4,116.87 C107.57,118.06 108.89,119.69 109.89,118.58 C111.096697,117.106237 112.202543,115.552706 113.2,113.93 C114.252869,112.42164 115.221031,110.855889 116.1,109.24 C116.48,108.51 115.59,107.69 115.1,108.32" id="Path" fill="#1171B8"></path>
            <path d="M106.07,133.86 C104.961242,136.556419 103.329916,139.006807 101.27,141.07 C100.21,142.07 101.74,143.85 102.79,142.82 C105.07339,140.533298 106.68231,137.661462 107.44,134.52 C107.66,133.6 106.44,132.96 106.07,133.86" id="Path" fill="#1171B8"></path>
            <path d="M116.42,145.4 C115.09741,146.67924 113.977849,148.152879 113.1,149.77 C112.47,150.95 113.92,152.24 114.76,151.25 C115.934239,149.797883 116.894021,148.184776 117.61,146.46 C117.99,145.56 117.08,144.75 116.42,145.4" id="Path" fill="#1171B8"></path>
            <path d="M131.44,118.81 C130.63,119.67 129.8,120.5 129.03,121.41 C128.208374,122.239937 127.477577,123.155109 126.85,124.14 C126.35,125.14 127.4,126.47 128.25,125.76 C129.081434,124.941925 129.822371,124.036708 130.46,123.06 C131.19,122.06 131.85,121.06 132.54,120.06 C133.23,119.06 132.2,118 131.44,118.8" id="Path" fill="#1171B8"></path>
            <path d="M109.69,86.76 C108.57,88.0933333 107.47,89.4266667 106.39,90.76 C105.86,91.44 104.54,92.98 105.53,93.93 C106.52,94.88 107.6,92.93 108.07,92.25 C109.07,90.76 109.93,89.25 110.83,87.73 C111.29,86.94 110.26,86.06 109.69,86.73" id="Path" fill="#1171B8"></path>
            <path d="M86.88,72.36 C85.88,73.7 84.88,75.03 83.88,76.36 C83.04,77.52 81.88,78.7 81.88,80.29 C81.88,80.85 82.39,81.29 82.88,81.15 C84.19,80.66 84.88,79.09 85.58,77.84 C86.44,76.37 87.27,74.84 88.1,73.38 C88.56,72.56 87.48,71.58 86.92,72.38" id="Path" fill="#1171B8"></path>
            <path d="M68.33,61.43 C67.24,62.36 66.21,63.43 65.05,64.29 C63.6,65.29 65.43,67.7 66.41,66.29 C67.27,65.06 68.41,64 69.3,62.85 C69.9,62.13 69.09,60.76 68.3,61.41" id="Path" fill="#1171B8"></path>
            <path d="M115.22,58.64 C113.76,60.43 112.22,62.1 110.74,63.9 C110.04,64.76 109.34,65.63 108.63,66.49 C107.962831,67.0863864 107.630304,67.9718798 107.74,68.86 C107.797794,69.1516437 108.043453,69.3686426 108.34,69.39 C109.25,69.46 109.73,68.75 110.27,68.02 C110.94,67.12 111.63,66.23 112.27,65.33 C113.62,63.53 114.87,61.63 116.27,59.84 C116.88,59.02 115.88,57.84 115.27,58.64" id="Path" fill="#1171B8"></path>
            <path d="M130.7,75.6 C130.233403,76.515566 129.69856,77.3947157 129.1,78.23 C128.47,79.01 127.47,79.54 127.25,80.63 C127.15952,80.9410224 127.210722,81.2761135 127.389953,81.545924 C127.569184,81.8157345 127.858223,81.9928338 128.18,82.03 C129.36,82.21 130.34,80.66 130.94,79.68 C131.637421,78.5916612 132.056399,77.348466 132.16,76.06 C132.2014,75.6894834 131.974809,75.3414716 131.619219,75.2294362 C131.263628,75.1174009 130.878469,75.2726696 130.7,75.6" id="Path" fill="#1171B8"></path>
            <path d="M37.59,295.32 C35.59,296.62 33.9,298.85 32.22,300.68 C30.3903779,302.532891 28.6960296,304.514644 27.15,306.61 C26.829011,307.09523 26.9133187,307.742595 27.3478785,308.129429 C27.7824383,308.516262 28.435211,308.525027 28.88,308.15 C30.7212721,306.280105 32.4193889,304.274455 33.96,302.15 C35.47,300.27 37.29,298.43 38.35,296.15 C38.61,295.59 38.08,294.96 37.59,295.28" id="Path" fill="#FFFFFF"></path>
            <path d="M59.35,296.75 C55.78,299.81 52.35,303.13 48.87,306.29 C47.48,307.55 49.55,310.08 50.87,308.58 C53.97,305.06 57.2,301.66 60.22,298.06 C60.77,297.41 60.03,296.16 59.35,296.75" id="Path" fill="#FFFFFF"></path>
            <path d="M57.78,318.37 C56.2810075,319.030041 54.9560954,320.029716 53.91,321.29 C52.82,322.49 51.42,323.84 51.34,325.68 C51.2986927,326.107395 51.4968562,326.522647 51.8550911,326.759375 C52.213326,326.996104 52.6730259,327.01558 53.05,326.81 C54.24,326.13 54.83,324.46 55.73,323.37 C56.63,322.28 57.73,321.26 58.73,320.15 C59.34,319.43 58.73,318.01 57.83,318.37" id="Path" fill="#FFFFFF"></path>
            <path d="M100,303.94 C98.1033044,305.693674 96.3039501,307.54978 94.61,309.5 C92.7197339,311.355524 91.0119051,313.388176 89.51,315.57 C88.72,316.87 90.31,318.75 91.45,317.8 C93.3569327,315.968682 95.0847636,313.959577 96.61,311.8 C98.2975574,309.777627 99.8732439,307.664471 101.33,305.47 C101.88,304.59 100.76,303.27 100,303.94" id="Path" fill="#FFFFFF"></path>
            <path d="M95.71,332 C94.3078727,333.426296 93.0205398,334.961065 91.86,336.59 C90.6387303,338.074043 89.4939112,339.619382 88.43,341.22 C87.43,342.83 89.63,344.7 90.79,343.31 C92.0440281,341.706224 93.2123276,340.037225 94.29,338.31 C95.4173353,336.761627 96.420462,335.126531 97.29,333.42 C97.87,332.19 96.56,331.18 95.68,331.99" id="Path" fill="#FFFFFF"></path>
            <path d="M107.43,347.13 C106.013075,348.10251 104.675545,349.18591 103.43,350.37 C102.24,351.45 100.43,352.61 99.79,354.24 C99.36,355.39 100.08,356.9 101.3,356.49 C102.89,355.96 104.06,354.14 105.21,352.85 C106.458997,351.478481 107.60227,350.014289 108.63,348.47 C109.17,347.65 108.15,346.68 107.46,347.13" id="Path" fill="#FFFFFF"></path>
            <path d="M137.5,330.42 C135.8,332.42 134.28,334.7 132.63,336.8 C130.98,338.9 129.15,340.85 127.63,343.05 C126.4,344.8 128.36,347.21 129.83,345.57 C131.626825,343.398805 133.267598,341.10306 134.74,338.7 C136.311435,336.478034 137.753815,334.167555 139.06,331.78 C139.62,330.69 138.3,329.49 137.52,330.42" id="Path" fill="#FFFFFF"></path>
            <path d="M124.14,368.13 C122.489891,372.118409 120.062781,375.738678 117,378.78 C115.43,380.31 117.7,382.89 119.25,381.37 C122.638776,377.999501 125.027165,373.755784 126.15,369.11 C126.48,367.76 124.69,366.81 124.15,368.11" id="Path" fill="#FFFFFF"></path>
            <path d="M139.5,385.18 C137.546804,387.071977 135.888364,389.246151 134.58,391.63 C133.65,393.38 135.79,395.28 137.05,393.82 C138.791021,391.676056 140.212435,389.291315 141.27,386.74 C141.84,385.41 140.48,384.21 139.5,385.18" id="Path" fill="#FFFFFF"></path>
            <path d="M161.81,345.91 C160.6,347.18 159.38,348.41 158.23,349.76 C157.003727,350.967896 155.916922,352.30963 154.99,353.76 C154.24,355.17 155.8,357.18 157.07,356.14 C158.303102,354.930356 159.399671,353.588986 160.34,352.14 C161.43,350.71 162.42,349.21 163.43,347.72 C164.32,346.41 162.93,344.72 161.81,345.86" id="Path" fill="#FFFFFF"></path>
            <path d="M129.52,298.57 C127.846667,300.51 126.216667,302.493333 124.63,304.52 C123.83,305.52 121.87,307.81 123.35,309.21 C124.83,310.61 126.42,307.78 127.11,306.72 C128.52,304.53 129.88,302.31 131.21,300.06 C131.9,298.89 130.37,297.59 129.52,298.57" id="Path" fill="#FFFFFF"></path>
            <path d="M95.66,277.31 C94.16,279.31 92.66,281.25 91.2,283.31 C89.97,285.01 88.28,286.76 88.2,289.1 C88.2,289.93 88.96,290.64 89.66,290.38 C91.6,289.65 92.59,287.38 93.66,285.49 C94.94,283.31 96.16,281.11 97.4,278.9 C98.08,277.69 96.49,276.24 95.65,277.35" id="Path" fill="#FFFFFF"></path>
            <path d="M68.13,261.16 C66.51,262.53 64.97,264.16 63.26,265.38 C61.1,266.92 63.82,270.38 65.26,268.38 C66.54,266.56 68.15,265 69.56,263.31 C70.45,262.24 69.25,260.21 68.12,261.17" id="Path" fill="#FFFFFF"></path>
            <path d="M137.73,257.05 C135.57,259.69 133.24,262.16 131.08,264.81 C130.08,266.08 129,267.37 127.94,268.64 C127.03,269.73 126.4,270.59 126.63,272.14 C126.727073,272.559293 127.081532,272.869444 127.51,272.91 C128.87,273.02 129.57,271.98 130.38,270.91 C131.38,269.58 132.38,268.27 133.38,266.91 C135.38,264.25 137.24,261.44 139.25,258.79 C140.16,257.59 138.68,255.85 137.71,257.03" id="Path" fill="#FFFFFF"></path>
            <path d="M160.71,282.09 C160.016715,283.445287 159.221074,284.745725 158.33,285.98 C157.4,287.12 155.91,287.91 155.59,289.52 C155.461108,289.980375 155.53952,290.474075 155.80471,290.87186 C156.0699,291.269645 156.495464,291.53191 156.97,291.59 C158.72,291.86 160.17,289.59 161.06,288.12 C162.087802,286.508845 162.7121,284.673682 162.88,282.77 C162.937486,282.220907 162.600008,281.707383 162.073176,281.542293 C161.546343,281.377202 160.976155,281.606297 160.71,282.09" id="Path" fill="#FFFFFF"></path>
        </g>
    </g>
</svg>