<?xml version="1.0" encoding="UTF-8"?>
<svg width="253px" height="474px" viewBox="0 0 253 474" version="1.1" xmlns="http://www.w3.org/2000/svg" xmlns:xlink="http://www.w3.org/1999/xlink">
    <title>Illustrations / 2</title>
    <g id="Illustrations-/-2" stroke="none" stroke-width="1" fill="none" fill-rule="evenodd">
        <g id="Asset-2" fill-rule="nonzero">
            <rect id="Rectangle" fill="#03B9D3" x="0" y="0" width="253" height="474"></rect>
            <path d="M252.88,0 L0,0 L0,50.13 C3.99539878,52.9565217 8.23173179,55.4260429 12.66,57.51 C28.66,65 36,69.76 44.87,80.56 C56.87,95.23 66.13,105.67 77.35,121.19 C88.57,136.71 102.55,139.79 119.52,144.14 C140.65,149.56 163.27,139.21 184.1,146.14 C213.83,155.96 227.86,195.7 252.88,216.82 L252.88,0 Z" id="Path" fill="#1171B8"></path>
            <path d="M252.88,262.47 C232.14,241.4 199.72,236.17 188.82,233.12 C170.87,228.12 137.57,229.07 117.82,244.49 C101.72,257.03 88.2,273.43 81.46,292.68 C74.72,311.93 75.28,334.16 85.31,351.92 C91.99,363.74 102.31,373.01 113.02,381.39 C140.67,403.1 176.57,420.96 210.02,410.2 C228.49,404.26 242.77,390.2 252.92,373.01 L252.88,262.47 Z" id="Path" fill="#EAA421"></path>
            <path d="M44.26,130.88 C40.49,125.25 34.87,121.25 29.18,117.78 C28.5335825,117.410706 27.7137859,117.575205 27.2598754,118.165289 C26.8059648,118.755372 26.857252,119.589936 27.38,120.12 C32.01,124.41 35.76,129.53 40.12,134.12 C42.12,136.24 45.96,133.44 44.26,130.92" id="Path" fill="#FFFFFF"></path>
            <path d="M57.9,107.65 C56.66,105.58 55.35,102.54 53.14,101.42 C52.4630781,101.051647 51.6435518,101.060708 50.9749394,101.443937 C50.306327,101.827166 49.8842963,102.529729 49.86,103.3 C49.56,105.72 51.46,108.67 52.46,110.83 C53.6,113.29 54.46,116.15 56.86,117.67 C57.7541003,118.174639 58.8479578,118.170788 59.7384823,117.659865 C60.6290068,117.148942 61.1844009,116.206564 61.2,115.18 C61.27,112.44 59.26,109.93 57.9,107.65" id="Path" fill="#FFFFFF"></path>
            <path d="M77.78,98.62 C76.21,95.52 74.65,92.36 73.37,89.13 C73.0756796,88.2409421 72.136687,87.7380692 71.2335472,87.9858332 C70.3304074,88.2335973 69.7794607,89.1452145 69.98,90.06 C70.5323571,93.7082709 71.4571896,97.2903213 72.74,100.75 C73.84,103.53 74.81,107.12 77.59,108.55 C78.300942,108.946376 79.1684403,108.93746 79.8710855,108.526556 C80.5737307,108.115653 81.0068606,107.363967 81.01,106.55 C81.22,103.65 79.01,101.1 77.78,98.55" id="Path" fill="#FFFFFF"></path>
            <path d="M99,84.91 C98.5945019,84.2467775 97.764714,83.9801537 97.0487884,84.2830453 C96.3328628,84.5859369 95.9463841,85.367135 96.14,86.12 C96.53,88.12 96.74,90.12 97.14,92.18 C97.54,94.24 97.4,96.3 98.07,98.26 C99.16,101.43 104.07,101.02 104.07,97.44 C104.07,92.99 101.43,88.44 99.07,84.91" id="Path" fill="#FFFFFF"></path>
            <path d="M127.85,88.29 C127.417687,86.0077962 126.670552,83.79668 125.63,81.72 C125.32486,81.222137 124.755508,80.950232 124.176492,81.0258497 C123.597475,81.1014675 123.117047,81.5104708 122.95,82.07 C122.554823,84.3519388 122.484124,86.6782752 122.74,88.98 C122.87,91.35 122.74,93.98 123.67,96.24 C124.062732,97.5307032 125.333777,98.3459014 126.670657,98.1645031 C128.007538,97.9831049 129.015401,96.8586869 129.05,95.51 C129.28,93.11 128.41,90.61 127.85,88.29" id="Path" fill="#FFFFFF"></path>
            <path d="M156.71,97.06 C156.27,94.93 155.89,92.77 155.31,90.67 C154.82,88.88 154.54,86.81 153.49,85.25 C153.328451,84.9849035 153.040442,84.8231414 152.73,84.8231414 C152.419558,84.8231414 152.131549,84.9849035 151.97,85.25 C150.18,88.72 150.8,94.06 151.16,97.81 C151.164782,98.8130256 151.696477,99.7396943 152.56,100.25 L153.16,100.5 C153.932807,100.907596 154.878673,100.783351 155.52,100.19 L155.98,99.81 C156.696224,99.0890443 156.974363,98.041257 156.71,97.06" id="Path" fill="#FFFFFF"></path>
            <path d="M182.51,93.82 C181.73,91.34 180.76,88.93 179.97,86.45 C179.24,84.16 175.28,84.45 175.55,87.05 C175.82,89.65 175.89,92.14 176.16,94.68 C176.43,97.22 176.37,99.83 178.35,101.49 C179.67,102.6 181.98,102.7 182.88,100.91 C184.11,98.44 183.3,96.34 182.51,93.82" id="Path" fill="#FFFFFF"></path>
            <path d="M207.57,89.22 C206.57,86.91 206.11,84.59 204.57,82.57 C204.404002,82.4044862 204.170913,82.3248366 203.938339,82.3541526 C203.705764,82.3834687 203.499732,82.5184697 203.38,82.72 C202.18,85.28 202.55,87.82 202.92,90.52 C203.32,93.43 203.41,97.01 206.24,98.52 C206.927289,98.9091504 207.754584,98.9634301 208.486828,98.6674166 C209.219072,98.3714032 209.77623,97.757451 210,97 C210.76,94.09 208.67,91.78 207.6,89.18" id="Path" fill="#FFFFFF"></path>
            <path d="M240.11,94.34 C238.81,92.83 237.3,91.59 236.11,89.98 C234.909603,88.3389767 234.083548,86.4547507 233.69,84.46 C233.14,82.12 229.18,82.57 229.42,85.04 C229.87,89.8 231.42,95.99 235.42,99.04 C238.78,101.64 243.02,97.65 240.16,94.3" id="Path" fill="#FFFFFF"></path>
            <path d="M252.88,71.74 C251.56,70.03 248.28,71.59 249,73.86 C250.020647,77.2346152 251.318396,80.5191234 252.88,83.68 L252.88,71.74 Z" id="Path" fill="#FFFFFF"></path>
            <path d="M252.88,121.87 C231.64,128.72 208.05,126.54 187.41,123.34 C183.32,122.71 179.15,122.02 175.11,121.34 C155,118 134.27,114.54 113.73,117 C101.059371,118.385097 88.8550492,122.569339 78,129.25 C66.57,136.46 58.31,146.15 54.1,157.25 C53.8585087,157.880156 53.9855229,158.592205 54.43,159.1 C54.6287097,159.319416 54.8749961,159.490448 55.15,159.6 C56.0915111,159.952025 57.140718,159.478766 57.5,158.54 C66.67,134.32 93.74,122.93 114.14,120.54 C134.14,118.19 154.67,121.61 174.5,124.91 C178.55,125.58 182.73,126.28 186.85,126.91 C207.56,130.11 231.23,132.3 252.85,125.65 L252.88,121.87 Z" id="Path" fill="#FFFFFF"></path>
            <path d="M84.05,174.48 C81.5163316,172.828329 78.6274776,171.800267 75.62,171.48 C61.21,169.68 55.41,176.28 52.3,181.4 C49.19,186.52 49.5,193.58 52.94,199.18 C56.1,204.33 61.62,208.25 68.49,210.18 C75.36,212.11 81.92,211.63 86.9,208.88 C92.47,205.81 95.8,199.58 94.82,194.07 C93.58,187.07 90.68,178.91 84.05,174.5 M57.53,209.93 C54.1690513,207.735161 51.3265,204.834599 49.2,201.43 C44.92,194.43 44.66,185.43 48.55,179.07 C54.41,169.42 63.45,165.49 76.16,167.07 C88.24,168.58 96.4,177.88 99.16,193.28 C100.46,200.59 96.16,208.76 89.04,212.71 C82.96,216.05 75.24,216.65 67.3,214.38 C63.8401562,213.407817 60.5513412,211.906768 57.55,209.93" id="Shape" fill="#FFFFFF"></path>
        </g>
    </g>
</svg>