<?xml version="1.0" encoding="UTF-8"?>
<svg width="504px" height="149px" viewBox="0 0 504 149" version="1.1" xmlns="http://www.w3.org/2000/svg" xmlns:xlink="http://www.w3.org/1999/xlink">
    <title>Illustrations / 4</title>
    <g id="Illustrations-/-4" stroke="none" stroke-width="1" fill="none" fill-rule="evenodd">
        <g id="Asset-1" fill-rule="nonzero">
            <rect id="Rectangle" fill="#1171B8" x="0.19" y="1.26" width="503.29" height="148.82"></rect>
            <path d="M172.22,1 L0,1 L0.19,150.08 L52.89,150.08 C58.89,150.08 62.62,143.23 66.03,138.36 C80.22,118.09 69,86.49 85.44,68 C103.86,47.29 142.35,59.13 161.61,39.2 C169.77,30.75 172.38,18.33 172.39,6.59 C172.39,4.73 172.33,2.87 172.22,1.01" id="Path" fill="#03B9D3"></path>
            <path d="M147.38,49.69 C146.51,47.38 144.27,45.74 142.38,44.57 C138.06775,41.7876728 132.909602,40.6221296 127.82,41.28 C122.769683,41.9944139 118.283808,44.8802781 115.54,49.18 C112.664658,54.0693389 112.502269,60.0928416 115.11,65.13 C117.811343,70.1338083 122.744248,73.5426053 128.38,74.3 C134.04357,74.9876025 139.718798,73.1141905 143.86,69.19 C148.725225,63.9256947 150.083932,56.3122472 147.34,49.69 M128.14,76.45 C121.802794,75.5931152 116.25745,71.7574616 113.22,66.13 C110.272181,60.4160299 110.464765,53.5887125 113.73,48.05 C116.807445,43.2065779 121.849231,39.9513382 127.53,39.14 C133.136157,38.4019963 138.822495,39.6738937 143.58,42.73 C145.72,44.09 148.31,46.01 149.41,48.92 C153.41,59.43 148.52,67.81 145.41,70.77 C141.45292,74.5004161 136.228166,76.5910324 130.79,76.6201508 C129.910479,76.6234819 129.031754,76.5666822 128.16,76.45" id="Shape" fill="#F5F7FB"></path>
            <path d="M115.85,1 C110.74,9.84 103.17,18 92.76,25.88 C88.87,28.83 84.69,31.67 80.65,34.42 C68.21,42.89 55.35,51.64 48.23,65 C41.11,78.36 41,94.64 41.89,108.62 C42.05,111.1 42.24,113.62 42.42,116.07 C43.27,127.32 44.14,138.93 42.19,150.07 L44.39,150.07 C46.3,138.78 45.39,127.16 44.59,115.9 C44.41,113.46 44.22,110.9 44.06,108.47 C43.19,94.8 43.23,79.06 50.15,66.05 C57.07,53.04 69.65,44.52 81.88,36.21 C85.94,33.44 90.13,30.58 94.07,27.6 C105.14,19.22 113.07,10.51 118.34,0.99 L115.85,1 Z" id="Path" fill="#FFFFFF"></path>
        </g>
    </g>
</svg>