<?xml version="1.0" encoding="UTF-8"?>
<svg width="137px" height="46px" viewBox="0 0 137 46" version="1.1" xmlns="http://www.w3.org/2000/svg" xmlns:xlink="http://www.w3.org/1999/xlink">
    <title>Logo</title>
    <g id="Logo" stroke="none" stroke-width="1" fill="none" fill-rule="evenodd">
        <g id="Group" transform="translate(0.000000, 0.000000)">
            <path d="M70.768,34.811 C70.768,34.75 70.784,34.375 70.816,33.69 C70.849,33.003 70.919,32.089 71.027,30.949 C71.135,29.808 71.26,28.49 71.401,26.994 C71.543,25.498 71.742,23.92 72,22.262 C72.258,20.603 72.562,18.902 72.912,17.158 C73.262,15.414 73.678,13.716 74.16,12.063 C74.642,10.411 75.194,8.853 75.815,7.391 C76.436,5.928 77.132,4.649 77.905,3.553 C78.678,2.458 79.54,1.592 80.491,0.955 C81.443,0.318 82.486,0 83.622,0 C84.061,0 84.522,0.072 85.007,0.216 C85.491,0.36 85.932,0.593 86.333,0.916 C86.733,1.24 87.066,1.668 87.33,2.2 C87.594,2.733 87.727,3.389 87.727,4.167 C87.727,4.891 87.603,5.722 87.357,6.661 C87.111,7.6 86.765,8.603 86.319,9.671 C85.873,10.738 85.347,11.849 84.741,13.002 C84.136,14.156 83.474,15.306 82.755,16.453 C82.036,17.601 81.28,18.73 80.488,19.84 C79.696,20.951 78.887,21.991 78.062,22.96 L78.023,23.255 C78.296,23.147 78.5,23.077 78.637,23.045 C78.773,23.013 78.916,22.996 79.066,22.996 C79.246,22.996 79.392,23.01 79.503,23.037 C79.614,23.064 79.714,23.093 79.804,23.125 C79.894,23.158 79.988,23.188 80.085,23.214 C80.182,23.241 80.3,23.255 80.439,23.255 C81.719,23.255 82.851,23.111 83.834,22.822 C84.817,22.534 85.645,22.212 86.318,21.855 C87.107,21.451 87.793,20.978 88.375,20.438 L87.948,24.932 C87.094,25.379 86.201,25.727 85.27,25.976 C84.339,26.224 83.478,26.41 82.69,26.535 C81.771,26.671 80.847,26.758 79.918,26.795 C80.417,27.605 80.868,28.446 81.27,29.317 C81.617,30.065 81.932,30.903 82.217,31.829 C82.501,32.755 82.643,33.691 82.643,34.636 C82.643,34.746 82.625,34.979 82.591,35.335 C82.556,35.691 82.498,36.126 82.417,36.642 C82.336,37.157 82.221,37.727 82.072,38.353 C81.923,38.979 81.73,39.611 81.493,40.249 C81.256,40.887 80.968,41.503 80.629,42.099 C80.29,42.693 79.894,43.221 79.441,43.681 C78.987,44.141 78.466,44.512 77.877,44.795 C77.287,45.077 76.62,45.218 75.876,45.218 C75.169,45.218 74.552,45.065 74.025,44.758 C73.498,44.452 73.048,44.038 72.676,43.517 C72.303,42.996 71.991,42.389 71.741,41.697 C71.49,41.004 71.294,40.272 71.153,39.5 C71.012,38.727 70.912,37.94 70.854,37.137 C70.797,36.334 70.768,35.559 70.768,34.811 Z M75.901,25.118 C75.848,25.118 75.789,25.259 75.724,25.54 C75.658,25.82 75.607,26.173 75.572,26.598 C75.536,27.023 75.485,27.627 75.419,28.412 C75.353,29.197 75.299,29.84 75.256,30.341 C75.213,30.843 75.179,31.318 75.153,31.766 C75.127,32.215 75.114,32.568 75.114,32.827 C75.114,34.634 75.15,36.073 75.222,37.142 C75.293,38.212 75.384,39.023 75.495,39.576 C75.606,40.13 75.729,40.489 75.866,40.655 C76.002,40.821 76.142,40.904 76.286,40.904 C76.728,40.904 77.083,40.713 77.35,40.332 C77.616,39.951 77.818,39.468 77.955,38.885 C78.091,38.301 78.182,37.661 78.228,36.967 C78.274,36.272 78.296,35.605 78.296,34.966 C78.296,34.535 78.283,34.007 78.257,33.38 C78.231,32.753 78.192,32.076 78.14,31.349 C78.087,30.623 77.979,29.801 77.815,28.884 C77.652,27.967 77.423,27.278 77.128,26.817 C76.833,26.355 76.594,25.957 76.411,25.621 C76.227,25.286 76.057,25.118 75.901,25.118 Z M80.811,5.842 C80.049,7.474 79.423,9.027 78.934,10.499 C78.484,11.849 78.148,13.045 77.923,14.088 C77.699,15.131 77.539,16.048 77.444,16.84 C77.348,17.631 77.255,18.364 77.164,19.039 C77.994,17.628 78.851,16.254 79.736,14.916 C80.62,13.579 81.394,12.324 82.058,11.152 C82.722,9.98 83.289,8.848 83.76,7.756 C84.232,6.664 84.467,5.885 84.467,5.418 C84.467,4.768 84.371,4.293 84.179,3.992 C83.987,3.691 83.667,3.541 83.219,3.541 C82.511,3.541 82.035,3.688 81.79,3.983 C81.6,4.228 81.273,4.848 80.811,5.842 L80.811,5.842 Z" id="Fill-4" fill="#2D2E2C"></path>
            <path d="M86.563,30.262 C86.563,29.721 86.595,29.091 86.66,28.372 C86.724,27.653 86.812,26.894 86.922,26.095 C87.031,25.296 87.161,24.481 87.31,23.651 C87.458,22.821 87.649,21.936 87.882,20.995 C88.115,20.055 88.316,19.271 88.484,18.645 C88.652,18.017 88.82,17.501 88.988,17.095 C89.092,16.825 89.195,16.61 89.299,16.45 C89.402,16.29 89.522,16.164 89.658,16.072 C89.793,15.98 89.961,15.918 90.162,15.887 C90.363,15.857 90.611,15.841 90.909,15.841 C91.245,15.841 91.508,15.857 91.695,15.887 C91.883,15.918 92.021,15.992 92.112,16.109 C92.202,16.226 92.258,16.395 92.277,16.616 C92.297,16.837 92.306,17.139 92.306,17.519 C92.306,17.974 92.274,18.62 92.209,19.456 C92.144,20.292 92.125,21.023 92.151,21.65 L92.365,21.65 C92.623,21.159 92.947,20.513 93.335,19.714 C93.723,18.915 94.13,18.251 94.557,17.722 C94.984,17.194 95.469,16.748 96.012,16.385 C96.556,16.023 97.183,15.841 97.895,15.841 C98.14,15.841 98.38,15.881 98.613,15.961 C98.846,16.041 99.049,16.155 99.224,16.302 C99.398,16.45 99.537,16.631 99.641,16.846 C99.744,17.062 99.796,17.304 99.796,17.575 C99.796,17.784 99.764,18.076 99.699,18.451 C99.635,18.826 99.531,19.315 99.389,19.917 C99.246,20.519 99.143,21.014 99.078,21.401 C99.014,21.789 98.981,22.111 98.981,22.369 C98.981,22.812 99.027,23.181 99.117,23.476 C99.208,23.771 99.327,24.008 99.476,24.186 C99.625,24.364 99.793,24.49 99.981,24.564 C100.168,24.638 100.365,24.675 100.572,24.675 C101.155,24.675 101.756,24.552 102.377,24.306 C102.998,24.06 103.567,23.783 104.085,23.476 C104.693,23.12 105.288,22.714 105.87,22.259 L105.579,26.574 C105.242,26.783 104.861,27.016 104.434,27.275 C104.007,27.533 103.551,27.776 103.066,28.003 C102.581,28.231 102.076,28.421 101.552,28.575 C101.029,28.729 100.495,28.805 99.951,28.805 C98.981,28.805 98.198,28.618 97.603,28.243 C97.008,27.868 96.536,27.376 96.187,26.768 C95.838,26.159 95.579,25.477 95.411,24.721 C95.243,23.965 95.107,23.199 95.003,22.425 L94.693,22.425 L91.22,31.627 C91.038,32.107 90.867,32.503 90.706,32.816 C90.544,33.13 90.379,33.385 90.211,33.582 C90.042,33.779 89.861,33.917 89.667,33.996 C89.473,34.077 89.26,34.117 89.027,34.117 C88.497,34.117 88.07,34.009 87.746,33.794 C87.423,33.579 87.174,33.29 86.999,32.927 C86.825,32.564 86.708,32.152 86.65,31.692 C86.592,31.23 86.563,30.754 86.563,30.262" id="Fill-5" fill="#2D2E2C"></path>
            <path d="M109.799,34.117 C108.591,34.117 107.535,33.904 106.629,33.478 C105.722,33.053 104.967,32.48 104.364,31.761 C103.76,31.041 103.307,30.209 103.005,29.265 C102.703,28.32 102.552,27.328 102.552,26.289 C102.552,25.61 102.687,24.8 102.957,23.859 C103.227,22.919 103.507,22.085 103.797,21.357 C104.086,20.629 104.449,19.934 104.887,19.273 C105.324,18.611 105.836,18.029 106.422,17.526 C107.007,17.022 107.663,16.621 108.39,16.324 C109.117,16.027 109.925,15.878 110.812,15.878 C111.537,15.878 112.211,15.989 112.832,16.21 C113.454,16.431 113.995,16.741 114.454,17.14 C114.914,17.539 115.274,18.021 115.533,18.586 C115.792,19.151 115.921,19.783 115.921,20.483 C115.921,21.228 115.659,22.063 115.133,22.989 C114.609,23.915 113.996,24.708 113.296,25.369 C112.596,26.031 111.763,26.619 110.797,27.136 C109.831,27.653 108.785,28.056 107.657,28.345 C107.851,28.669 108.043,28.94 108.231,29.156 C108.419,29.373 108.611,29.541 108.806,29.661 C109,29.781 109.205,29.865 109.419,29.914 C109.633,29.962 109.864,29.986 110.111,29.986 C110.887,29.986 111.705,29.842 112.566,29.553 C113.426,29.265 114.263,28.904 115.078,28.471 C115.893,28.038 116.663,27.566 117.388,27.055 C118.112,26.544 118.727,26.061 119.231,25.604 L121.734,28.02 C120.596,29.173 119.386,30.192 118.105,31.078 C117.549,31.458 116.951,31.832 116.31,32.199 C115.67,32.566 114.997,32.892 114.292,33.176 C113.587,33.461 112.857,33.689 112.1,33.86 C111.343,34.031 110.576,34.117 109.799,34.117 Z M107.209,25.333 C107.676,25.333 108.186,25.222 108.738,25 C109.29,24.778 109.802,24.492 110.277,24.143 C110.75,23.795 111.214,23.326 111.669,22.737 C112.124,22.148 112.351,21.661 112.351,21.276 C112.351,20.735 112.243,20.29 112.03,19.942 C111.815,19.593 111.552,19.419 111.24,19.419 C110.682,19.419 110.205,19.515 109.809,19.707 C109.413,19.9 109.082,20.149 108.816,20.456 C108.549,20.762 108.335,21.111 108.173,21.502 C108.011,21.892 107.822,22.376 107.608,22.953 C107.394,23.53 107.274,24.005 107.248,24.377 C107.222,24.75 107.209,25.069 107.209,25.333 L107.209,25.333 Z" id="Fill-6" fill="#2D2E2C"></path>
            <path d="M124.43,34.117 C123.222,34.117 122.165,33.904 121.259,33.478 C120.353,33.053 119.598,32.48 118.994,31.761 C118.391,31.041 117.938,30.209 117.636,29.265 C117.334,28.32 117.183,27.328 117.183,26.289 C117.183,25.61 117.318,24.8 117.588,23.859 C117.858,22.919 118.138,22.085 118.427,21.357 C118.717,20.629 119.08,19.934 119.518,19.273 C119.955,18.611 120.467,18.029 121.052,17.526 C121.638,17.022 122.294,16.621 123.021,16.324 C123.748,16.027 124.555,15.878 125.443,15.878 C126.168,15.878 126.842,15.989 127.463,16.21 C128.085,16.431 128.625,16.741 129.085,17.14 C129.545,17.539 129.904,18.021 130.163,18.586 C130.422,19.151 130.552,19.783 130.552,20.483 C130.552,21.228 130.29,22.063 129.764,22.989 C129.239,23.915 128.627,24.708 127.927,25.369 C127.227,26.031 126.394,26.619 125.428,27.136 C124.462,27.653 123.415,28.056 122.288,28.345 C122.482,28.669 122.674,28.94 122.862,29.156 C123.05,29.373 123.242,29.541 123.437,29.661 C123.631,29.781 123.836,29.865 124.05,29.914 C124.264,29.962 124.495,29.986 124.742,29.986 C125.518,29.986 126.336,29.842 127.196,29.553 C128.056,29.265 128.894,28.904 129.709,28.471 C130.524,28.038 131.294,27.566 132.018,27.055 C132.743,26.544 133.357,26.061 133.862,25.604 L136.365,28.02 C135.226,29.173 134.017,30.192 132.736,31.078 C132.18,31.458 131.582,31.832 130.941,32.199 C130.301,32.566 129.628,32.892 128.923,33.176 C128.218,33.461 127.487,33.689 126.731,33.86 C125.974,34.031 125.207,34.117 124.43,34.117 Z M121.84,25.333 C122.307,25.333 122.817,25.222 123.368,25 C123.921,24.778 124.433,24.492 124.907,24.143 C125.381,23.795 125.845,23.326 126.3,22.737 C126.754,22.148 126.982,21.661 126.982,21.276 C126.982,20.735 126.874,20.29 126.66,19.942 C126.446,19.593 126.183,19.419 125.871,19.419 C125.313,19.419 124.836,19.515 124.44,19.707 C124.044,19.9 123.713,20.149 123.446,20.456 C123.18,20.762 122.966,21.111 122.804,21.502 C122.641,21.892 122.453,22.376 122.239,22.953 C122.025,23.53 121.904,24.005 121.878,24.377 C121.852,24.75 121.84,25.069 121.84,25.333 L121.84,25.333 Z" id="Fill-7" fill="#2D2E2C"></path>
            <path d="M2.13162821e-14,34.116 L2.13162821e-14,13.001 L9.481,13.001 C10.545,13.001 11.52,13.209 12.407,13.626 C13.293,14.042 14.054,14.587 14.691,15.261 C15.327,15.935 15.828,16.698 16.193,17.551 C16.558,18.403 16.741,19.266 16.741,20.138 C16.741,21.07 16.569,21.963 16.225,22.815 C15.88,23.667 15.4,24.431 14.785,25.105 C14.169,25.779 13.424,26.314 12.547,26.711 C11.671,27.107 10.701,27.305 9.637,27.305 L5.131,27.305 L5.131,34.116 L2.13162821e-14,34.116 Z M5.131,23.053 L9.325,23.053 C9.929,23.053 10.451,22.805 10.889,22.31 C11.327,21.814 11.546,21.09 11.546,20.138 C11.546,19.643 11.478,19.217 11.343,18.859 C11.207,18.503 11.024,18.205 10.795,17.967 C10.566,17.729 10.305,17.556 10.013,17.447 C9.721,17.338 9.429,17.284 9.137,17.284 L5.131,17.284 L5.131,23.053 L5.131,23.053 Z" id="Fill-8" fill="#2D2E2C"></path>
            <path d="M22.905,13.001 L27.536,13.001 L35.641,34.116 L30.384,34.116 L28.663,29.387 L21.747,29.387 L20.057,34.116 L14.8,34.116 L22.905,13.001 Z M27.818,26.026 L25.22,18.562 L22.561,26.026 L27.818,26.026 L27.818,26.026 Z" id="Fill-9" fill="#2D2E2C"></path>
            <polygon id="Fill-10" fill="#2D2E2C" points="37.831 34.116 42.963 34.116 42.963 13.001 37.831 13.001"></polygon>
            <polyline id="Fill-11" fill="#2D2E2C" points="52.35 22.041 52.35 34.116 47.218 34.116 47.218 13.001 51.224 13.001 61.581 25.402 61.581 13.001 66.713 13.001 66.713 34.116 62.583 34.116 52.35 22.041"></polyline>
            <path d="M11.693,39.088 C11.676,39.069 11.618,39.032 11.519,38.978 C11.419,38.924 11.294,38.868 11.145,38.809 C10.995,38.751 10.832,38.699 10.655,38.655 C10.478,38.611 10.301,38.589 10.123,38.589 C9.636,38.589 9.393,38.734 9.393,39.022 C9.393,39.11 9.419,39.183 9.472,39.242 C9.524,39.301 9.602,39.353 9.704,39.4 C9.807,39.446 9.935,39.489 10.09,39.528 C10.245,39.567 10.425,39.611 10.63,39.66 C10.912,39.729 11.167,39.803 11.394,39.884 C11.621,39.964 11.813,40.065 11.971,40.185 C12.129,40.304 12.251,40.45 12.337,40.621 C12.422,40.792 12.465,40.998 12.465,41.237 C12.465,41.53 12.403,41.779 12.278,41.981 C12.154,42.184 11.989,42.348 11.784,42.473 C11.58,42.598 11.344,42.688 11.079,42.744 C10.813,42.8 10.539,42.829 10.256,42.829 C10.04,42.829 9.819,42.814 9.592,42.785 C9.365,42.755 9.144,42.712 8.928,42.656 C8.712,42.6 8.503,42.533 8.301,42.455 C8.099,42.376 7.912,42.286 7.74,42.183 L8.338,41.134 C8.36,41.159 8.432,41.205 8.554,41.274 C8.676,41.342 8.827,41.411 9.007,41.479 C9.186,41.548 9.387,41.609 9.609,41.662 C9.83,41.716 10.054,41.743 10.281,41.743 C10.763,41.743 11.004,41.614 11.004,41.354 C11.004,41.257 10.968,41.176 10.896,41.112 C10.824,41.049 10.724,40.991 10.597,40.94 C10.469,40.889 10.319,40.841 10.144,40.797 C9.97,40.753 9.78,40.704 9.575,40.65 C9.304,40.577 9.069,40.498 8.87,40.412 C8.67,40.326 8.505,40.228 8.375,40.115 C8.245,40.003 8.148,39.873 8.085,39.726 C8.021,39.58 7.989,39.408 7.989,39.213 C7.989,38.939 8.047,38.697 8.164,38.487 C8.28,38.276 8.438,38.099 8.637,37.955 C8.836,37.811 9.068,37.702 9.33,37.629 C9.593,37.555 9.872,37.519 10.165,37.519 C10.37,37.519 10.572,37.536 10.771,37.57 C10.971,37.604 11.162,37.648 11.344,37.702 C11.527,37.756 11.697,37.817 11.855,37.885 C12.013,37.954 12.158,38.022 12.291,38.091 L11.693,39.088" id="Fill-12" fill="#26B3C3"></path>
            <polyline id="Fill-13" fill="#26B3C3" points="17.755 38.619 15.961 38.619 15.961 42.77 14.599 42.77 14.599 38.619 12.797 38.619 12.797 37.563 17.755 37.563 17.755 38.619"></polyline>
            <path d="M20.761,42.814 C20.324,42.814 19.925,42.738 19.565,42.587 C19.205,42.435 18.898,42.236 18.643,41.989 C18.389,41.742 18.191,41.459 18.05,41.142 C17.909,40.824 17.838,40.496 17.838,40.159 C17.838,39.817 17.911,39.487 18.058,39.169 C18.205,38.851 18.409,38.571 18.672,38.329 C18.935,38.087 19.247,37.894 19.607,37.75 C19.967,37.605 20.36,37.533 20.786,37.533 C21.223,37.533 21.622,37.609 21.982,37.761 C22.342,37.912 22.649,38.113 22.903,38.362 C23.158,38.611 23.355,38.895 23.493,39.213 C23.631,39.531 23.701,39.853 23.701,40.181 C23.701,40.523 23.627,40.853 23.481,41.171 C23.334,41.489 23.13,41.769 22.87,42.011 C22.61,42.253 22.3,42.447 21.94,42.594 C21.58,42.741 21.187,42.814 20.761,42.814 Z M19.225,40.173 C19.225,40.374 19.258,40.568 19.324,40.757 C19.391,40.945 19.489,41.112 19.619,41.259 C19.749,41.406 19.911,41.523 20.105,41.611 C20.299,41.699 20.52,41.743 20.769,41.743 C21.03,41.743 21.256,41.697 21.45,41.604 C21.644,41.511 21.804,41.39 21.932,41.241 C22.059,41.092 22.155,40.923 22.219,40.735 C22.282,40.546 22.314,40.354 22.314,40.159 C22.314,39.958 22.281,39.764 22.214,39.576 C22.148,39.388 22.048,39.221 21.915,39.077 C21.783,38.933 21.62,38.818 21.43,38.732 C21.239,38.647 21.018,38.604 20.769,38.604 C20.509,38.604 20.283,38.649 20.093,38.74 C19.902,38.83 19.741,38.949 19.611,39.096 C19.481,39.242 19.384,39.409 19.32,39.598 C19.257,39.786 19.225,39.978 19.225,40.173 L19.225,40.173 Z" id="Fill-14" fill="#26B3C3"></path>
            <path d="M24.49,42.77 L24.49,37.563 L27.147,37.563 C27.424,37.563 27.68,37.614 27.915,37.717 C28.15,37.819 28.354,37.954 28.525,38.12 C28.697,38.286 28.831,38.474 28.928,38.685 C29.025,38.895 29.073,39.108 29.073,39.323 C29.073,39.484 29.051,39.639 29.007,39.789 C28.963,39.938 28.899,40.078 28.816,40.21 C28.733,40.342 28.632,40.461 28.513,40.566 C28.394,40.671 28.26,40.76 28.11,40.834 L29.406,42.77 L27.869,42.77 L26.74,41.09 L25.851,41.09 L25.851,42.77 L24.49,42.77 Z M25.851,40.042 L27.097,40.042 C27.258,40.042 27.396,39.974 27.512,39.84 C27.629,39.705 27.687,39.533 27.687,39.323 C27.687,39.108 27.62,38.937 27.487,38.809 C27.355,38.682 27.21,38.619 27.056,38.619 L25.851,38.619 L25.851,40.042 L25.851,40.042 Z" id="Fill-15" fill="#26B3C3"></path>
            <polyline id="Fill-16" fill="#26B3C3" points="34.197 41.714 34.197 42.77 30.053 42.77 30.053 37.563 34.123 37.563 34.123 38.619 31.415 38.619 31.415 39.631 33.741 39.631 33.741 40.606 31.415 40.606 31.415 41.714 34.197 41.714"></polyline>
            <path d="M47.439,40.144 C47.439,39.832 47.506,39.521 47.638,39.211 C47.77,38.902 47.964,38.625 48.218,38.381 C48.471,38.138 48.78,37.94 49.145,37.789 C49.509,37.638 49.923,37.563 50.386,37.563 C50.939,37.563 51.417,37.667 51.823,37.877 C52.229,38.087 52.531,38.359 52.73,38.696 L51.687,39.339 C51.62,39.203 51.536,39.089 51.434,38.999 C51.332,38.909 51.22,38.836 51.099,38.78 C50.977,38.724 50.853,38.685 50.726,38.663 C50.599,38.641 50.475,38.63 50.354,38.63 C50.094,38.63 49.868,38.676 49.675,38.769 C49.481,38.862 49.321,38.981 49.194,39.127 C49.067,39.273 48.974,39.439 48.913,39.624 C48.852,39.81 48.822,39.997 48.822,40.187 C48.822,40.392 48.858,40.589 48.93,40.78 C49.001,40.97 49.105,41.138 49.24,41.284 C49.375,41.43 49.538,41.546 49.728,41.631 C49.919,41.717 50.133,41.76 50.37,41.76 C50.491,41.76 50.617,41.746 50.747,41.719 C50.877,41.693 51.001,41.651 51.119,41.595 C51.238,41.539 51.347,41.466 51.446,41.376 C51.546,41.285 51.626,41.174 51.687,41.043 L52.796,41.621 C52.708,41.811 52.576,41.981 52.403,42.132 C52.229,42.284 52.029,42.41 51.802,42.513 C51.576,42.615 51.336,42.693 51.082,42.747 C50.828,42.8 50.58,42.827 50.337,42.827 C49.912,42.827 49.521,42.75 49.165,42.597 C48.809,42.443 48.503,42.24 48.246,41.986 C47.99,41.733 47.791,41.445 47.65,41.123 C47.51,40.802 47.439,40.475 47.439,40.144" id="Fill-17" fill="#26B3C3"></path>
            <path d="M56.049,42.827 C55.613,42.827 55.216,42.751 54.857,42.6 C54.498,42.449 54.192,42.251 53.938,42.005 C53.684,41.758 53.487,41.477 53.346,41.16 C53.205,40.843 53.135,40.516 53.135,40.18 C53.135,39.839 53.208,39.51 53.355,39.193 C53.501,38.876 53.705,38.597 53.967,38.356 C54.229,38.115 54.54,37.922 54.899,37.778 C55.257,37.634 55.649,37.563 56.074,37.563 C56.51,37.563 56.907,37.638 57.266,37.789 C57.625,37.94 57.931,38.14 58.185,38.389 C58.439,38.637 58.635,38.92 58.773,39.237 C58.911,39.554 58.98,39.875 58.98,40.202 C58.98,40.543 58.907,40.872 58.761,41.189 C58.614,41.506 58.411,41.785 58.152,42.026 C57.893,42.268 57.584,42.461 57.225,42.608 C56.866,42.754 56.474,42.827 56.049,42.827 Z M54.518,40.195 C54.518,40.395 54.551,40.588 54.617,40.776 C54.683,40.964 54.781,41.131 54.911,41.277 C55.041,41.423 55.202,41.54 55.395,41.628 C55.589,41.716 55.809,41.76 56.058,41.76 C56.317,41.76 56.543,41.713 56.736,41.621 C56.93,41.528 57.09,41.407 57.217,41.259 C57.344,41.11 57.439,40.942 57.502,40.754 C57.566,40.566 57.597,40.375 57.597,40.18 C57.597,39.98 57.564,39.786 57.498,39.599 C57.432,39.411 57.333,39.245 57.2,39.102 C57.068,38.958 56.906,38.843 56.716,38.758 C56.525,38.673 56.306,38.63 56.058,38.63 C55.798,38.63 55.573,38.675 55.383,38.765 C55.192,38.856 55.032,38.974 54.903,39.12 C54.773,39.266 54.676,39.433 54.613,39.621 C54.549,39.808 54.518,40 54.518,40.195 L54.518,40.195 Z" id="Fill-18" fill="#26B3C3"></path>
            <polyline id="Fill-19" fill="#26B3C3" points="64.403 42.783 64.403 39.676 63.128 41.935 62.399 41.935 61.124 39.676 61.124 42.783 59.766 42.783 59.766 37.592 61.24 37.592 62.763 40.304 64.295 37.592 65.76 37.592 65.76 42.783 64.403 42.783"></polyline>
            <path d="M37.882,40.463 C37.882,40.757 37.936,41.041 38.044,41.317 C38.152,41.593 38.312,41.838 38.524,42.053 C38.736,42.268 39,42.44 39.315,42.569 C39.631,42.698 39.991,42.763 40.397,42.763 C40.821,42.763 41.19,42.695 41.506,42.559 C41.821,42.423 42.083,42.245 42.29,42.026 C42.497,41.808 42.653,41.561 42.757,41.285 C42.86,41.009 42.912,40.728 42.912,40.441 C42.912,40.148 42.858,39.863 42.75,39.587 C42.642,39.311 42.48,39.067 42.263,38.856 C42.047,38.645 41.783,38.476 41.472,38.351 C41.161,38.226 40.803,38.163 40.397,38.163 C39.973,38.163 39.606,38.229 39.295,38.362 C38.984,38.494 38.723,38.668 38.511,38.883 C38.299,39.098 38.141,39.343 38.038,39.619 C37.934,39.895 37.882,40.176 37.882,40.463" id="Fill-20" fill="#26B3C3"></path>
            <text id="®" font-family="LucidaGrande, Lucida Grande" font-size="6.8716" font-weight="normal" fill="#2D2E2C">
                <tspan x="130.973" y="14.6928805">®</tspan>
            </text>
        </g>
    </g>
</svg>