<?xml version="1.0" encoding="UTF-8"?>
<svg width="24px" height="24px" viewBox="0 0 24 24" version="1.1" xmlns="http://www.w3.org/2000/svg" xmlns:xlink="http://www.w3.org/1999/xlink">
    <title>Icons / Delete</title>
    <g id="Icons-/-Delete" stroke="none" stroke-width="1" fill="none" fill-rule="evenodd">
        <path d="M19.1348877,7.86328125 C19.5075073,7.86328125 19.8008423,8.18115234 19.7706299,8.55267333 L19.7706299,8.55267333 L18.633728,22.6105957 C18.5703735,23.3955689 17.9157715,24 17.1293335,24 L17.1293335,24 L7.54138181,24 C6.75494386,24 6.1003418,23.3955689 6.03698728,22.6107788 L6.03698728,22.6107788 L4.90008544,8.55267333 C4.87005614,8.18115234 5.16339112,7.86328125 5.53601072,7.86328125 L5.53601072,7.86328125 Z M8.02716066,9.51361083 C7.62799073,9.53814698 7.32421875,9.88183594 7.34875491,10.281189 L7.34875491,10.281189 L8.06121825,21.8221435 C8.08483884,22.2062988 8.4036255,22.5020142 8.78338622,22.5020142 C8.79840089,22.5020142 8.81359866,22.5014648 8.82879637,22.5005493 C9.2279663,22.4758301 9.53173828,22.1323242 9.50701903,21.7329712 L9.50701903,21.7329712 L8.79473878,10.1920166 C8.77020262,9.79248047 8.42504883,9.48944091 8.02716066,9.51361083 Z M12.3435059,9.51214598 C11.9434204,9.51214598 11.6191406,9.83642578 11.6191406,10.2365112 L11.6191406,10.2365112 L11.6191406,21.7776489 C11.6191406,22.1775513 11.9434204,22.501831 12.3435059,22.501831 C12.7435913,22.501831 13.0678711,22.1775513 13.0678711,21.7776489 L13.0678711,21.7776489 L13.0678711,10.2365112 C13.0678711,9.83642578 12.7434082,9.51214598 12.3435059,9.51214598 Z M16.6415405,9.51342773 C16.2410888,9.48980714 15.8994141,9.79449464 15.8759766,10.1938477 L15.8759766,10.1938477 L15.1959229,21.7349854 C15.1723022,22.1343384 15.4769897,22.4771118 15.8763427,22.5007324 C15.8908081,22.5014648 15.9052734,22.501831 15.9195557,22.501831 C16.3000488,22.501831 16.6193848,22.2050171 16.6419067,21.8201294 L16.6419067,21.8201294 L17.3221435,10.2791748 C17.345581,9.87982177 17.0408935,9.53686523 16.6415405,9.51342773 Z M20.2902832,3.57238772 C20.6867065,3.57238772 21.0386353,3.82598878 21.1640625,4.2019043 L21.1640625,4.2019043 L21.6397705,5.62792969 C21.7315064,5.90277098 21.6121216,6.18328856 21.3892822,6.32318114 C21.298645,6.38031005 21.190979,6.41455078 21.072876,6.41455078 L21.072876,6.41455078 L3.59802244,6.41455078 C3.47991942,6.41455078 3.3724365,6.38031005 3.28161619,6.32336428 C3.05877684,6.18347166 2.93939208,5.90295412 3.03112791,5.62792969 L3.03112791,5.62792969 L3.50683594,4.2019043 C3.63208008,3.82598878 3.98419191,3.57238772 4.38043214,3.57238772 L4.38043214,3.57238772 Z M14.4362182,-1.86517468e-14 C15.1825561,-1.86517468e-14 15.7897339,0.607543969 15.7895508,1.35424805 L15.7895508,1.35424805 L15.7895508,2.12365725 L14.3410034,2.12365725 L14.3410034,1.44873047 L10.329895,1.44873047 L10.329895,2.12365725 L8.88116456,2.12365725 L8.88116456,1.35424805 C8.88116456,0.607543969 9.4883423,-1.86517468e-14 10.2346802,-1.86517468e-14 L10.2346802,-1.86517468e-14 Z" id="Combined-Shape" fill="#AFAFB6"></path>
    </g>
</svg>