<?xml version="1.0" encoding="UTF-8"?>
<svg width="24px" height="24px" viewBox="0 0 24 24" version="1.1" xmlns="http://www.w3.org/2000/svg" xmlns:xlink="http://www.w3.org/1999/xlink">
    <title>Icons / Replace</title>
    <g id="Icons-/-Replace" stroke="none" stroke-width="1" fill="none" fill-rule="evenodd">
        <path d="M24,12 C24,15.2052612 22.75177,18.218811 20.4852905,20.4852905 C18.218811,22.75177 15.2052612,24 12,24 L11.953125,24 C8.74969481,24 5.74383544,22.7510376 3.48925781,20.4832763 C1.23925781,18.2199097 0,15.2072754 0,12 L1.875,12 C1.875,17.5828857 6.39605714,22.125 11.953125,22.125 L12,22.125 C17.5828857,22.125 22.125,17.5828857 22.125,12 C22.125,6.41711428 17.5828857,1.875 12,1.875 C9.22265625,1.875 6.60662841,3.00714112 4.71459961,4.96875 L6.5625,4.96875 L6.5625,6.84375 L1.40625,6.84375 L1.40625,1.6875 L3.28125,1.6875 L3.28125,3.75366211 C5.52960206,1.37493895 8.66693114,0 12,0 C15.2052612,0 18.218811,1.24822997 20.4852905,3.51470948 C22.75177,5.78118895 24,8.79473878 24,12 Z" id="Shape" fill="#AFAFB6"></path>
    </g>
</svg>